<?xml version="1.0" encoding="UTF-8"?>
<svg xmlns="http://www.w3.org/2000/svg" width="25.955429077148438" height="29.989795684814453" viewBox="2.022284984588623 -13.994897842407227 25.955429077148438 29.989795684814453">
  <g transform="translate(0, -8.395095348358154)"><g transform="translate(0, -5.600000000000001)"><svg viewBox="0 0 1220 1409" width="30" height="30"><path d="M1035.04 245.413L850.6 351.934L1035.05 458.434V671.674L1219.52 565.169V351.929L1035.04 245.413Z" fill="white"/><path d="M0.47998 351.933L184.933 458.455V671.708L369.4 565.187V351.933L184.907 245.449L0.47998 351.933Z" fill="white"/><path d="M425.52 106.507L609.987 213.028V426.268L794.44 319.763V106.509L609.973 0.00927734L425.52 106.507Z" fill="white"/><path d="M425.52 598.454L609.987 704.97V918.21L794.44 811.688V598.448L609.973 491.943L425.52 598.454Z" fill="white"/><path d="M425.52 1088.79L609.987 1195.29V1408.53L794.44 1302.02V1088.78L609.973 982.26L425.52 1088.79Z" fill="white"/><path d="M850.6 843.347L1035.05 949.868V1163.08L1219.52 1056.56V843.347L1035.04 736.825L850.6 843.347Z" fill="white"/><path d="M0.47998 843.347L184.933 949.868V1163.11L369.4 1056.59V843.352L184.907 736.852L0.47998 843.347Z" fill="white"/></svg></g></g>
  <g transform="translate(38, 0)"></g>
</svg>
