<svg width="84" height="83" viewBox="0 0 84 83" fill="none" xmlns="http://www.w3.org/2000/svg">
<path fill-rule="evenodd" clip-rule="evenodd" d="M69.2998 82.5H83.0498V3.60619e-06L0.549808 0V27.5V55L0.549805 82.5L0.549809 68.75H14.2998L14.2998 82.5H28.0498V68.75H41.7998V82.5H55.5498V68.75H69.2998V82.5ZM41.7998 55H55.5498V68.75H41.7998V55ZM28.0498 55H41.7998V41.25H28.0498V27.5H14.2998L14.2998 13.75L0.549809 13.75L0.549808 27.5H14.2998L14.2998 41.25H0.549809L0.549808 55H14.2998L14.2998 68.75H28.0498V55ZM28.0498 55H14.2998L14.2998 41.25H28.0498V55Z" fill="black"/>
</svg>
