<svg width="183" height="48" viewBox="0 0 183 48" fill="none" xmlns="http://www.w3.org/2000/svg">
<path fill-rule="evenodd" clip-rule="evenodd" d="M12.8841 4.30933L5.9999 8.28507L12.889 12.2617L19.7752 8.28593L12.8841 4.30933ZM21.776 11.7496L14.889 15.7258L14.8883 23.679L21.776 19.7019L21.776 11.7496ZM23.776 23.166L16.8881 27.1432L23.777 31.1196L30.6641 27.1434L23.776 23.166ZM32.6639 30.6076L25.7771 34.5837V42.5359L32.6639 38.5598V30.6076ZM21.7771 42.5363V34.5838L14.888 30.6072V38.5597L21.7771 42.5363ZM10.8883 23.6793L4 19.7019V11.7492L10.889 15.7258L10.8883 23.6793ZM10.888 28.2981L1.49986 22.8772C0.571733 22.3413 0 21.3509 0 20.2792V8.2855C0 7.57105 0.381106 6.91087 0.999789 6.55357L11.3836 0.55677C12.3117 0.0208073 13.4552 0.0206161 14.3834 0.556265L24.7756 6.55323C25.3946 6.91044 25.776 7.57081 25.776 8.2855L25.776 19.7019L35.664 25.4115C36.2828 25.7688 36.6639 26.429 36.6639 27.1435V39.1371C36.6639 40.2089 36.0921 41.1993 35.1639 41.7352L24.7771 47.732C24.1584 48.0893 23.3961 48.0893 22.7773 47.7321L12.3882 41.7353C11.4599 41.1994 10.888 40.209 10.888 39.1371V28.2981Z" fill="#FF4405"/>
<path d="M50.9 34V29.68H57.8C58.76 29.68 59.45 29.49 59.87 29.11C60.29 28.73 60.5 28.2 60.5 27.52C60.5 26.86 60.29 26.34 59.87 25.96C59.45 25.58 58.76 25.39 57.8 25.39H50.9V22.6H58.61C60.77 22.6 62.41 23.12 63.53 24.16C64.67 25.2 65.24 26.52 65.24 28.12C65.24 29.84 64.63 31.25 63.41 32.35C62.19 33.45 60.42 34 58.1 34H50.9ZM48.86 34V13.3H53.51V34H48.86ZM50.9 23.53V21.58H57.08C58.02 21.58 58.7 21.41 59.12 21.07C59.54 20.71 59.75 20.22 59.75 19.6C59.75 18.98 59.54 18.5 59.12 18.16C58.7 17.8 58.02 17.62 57.08 17.62H50.9V13.3H57.41C58.95 13.3 60.24 13.53 61.28 13.99C62.34 14.43 63.14 15.05 63.68 15.85C64.22 16.65 64.49 17.59 64.49 18.67C64.49 20.09 63.88 21.26 62.66 22.18C61.46 23.08 59.7 23.53 57.38 23.53H50.9ZM67.1209 34V18.1H71.5909V34H67.1209ZM70.9909 26.86C70.9909 25 71.1709 23.39 71.5309 22.03C71.8909 20.65 72.4809 19.58 73.3009 18.82C74.1209 18.06 75.2209 17.68 76.6009 17.68V22.81H74.4709C73.5509 22.81 72.8409 23.03 72.3409 23.47C71.8409 23.91 71.5909 24.71 71.5909 25.87L70.9909 26.86ZM77.888 34V18.1H82.358V34H77.888ZM80.138 16.36C79.478 16.36 78.928 16.15 78.488 15.73C78.068 15.31 77.858 14.76 77.858 14.08C77.858 13.38 78.068 12.84 78.488 12.46C78.928 12.06 79.478 11.86 80.138 11.86C80.778 11.86 81.318 12.06 81.758 12.46C82.198 12.84 82.418 13.38 82.418 14.08C82.418 14.76 82.198 15.31 81.758 15.73C81.318 16.15 80.778 16.36 80.138 16.36ZM94.1745 34C94.0545 33.48 93.9545 32.95 93.8745 32.41C93.8145 31.87 93.7845 31.34 93.7845 30.82V24.1C93.7845 23.06 93.5445 22.33 93.0645 21.91C92.5845 21.49 92.0145 21.28 91.3545 21.28C90.7145 21.28 90.1545 21.46 89.6745 21.82C89.2145 22.18 88.8945 22.77 88.7145 23.59L84.4245 22.66C84.8445 21 85.6845 19.76 86.9445 18.94C88.2045 18.1 89.7645 17.68 91.6245 17.68C93.6645 17.68 95.2745 18.22 96.4545 19.3C97.6545 20.36 98.2545 21.84 98.2545 23.74V30.46C98.2545 31.64 98.4045 32.82 98.7045 34H94.1745ZM88.9545 34.42C87.3945 34.42 86.2045 34.01 85.3845 33.19C84.5845 32.37 84.1845 31.29 84.1845 29.95C84.1845 28.77 84.5745 27.73 85.3545 26.83C86.1545 25.91 87.3845 25.32 89.0445 25.06L95.0745 24.07V26.89L90.6645 27.82C89.9045 27.98 89.3845 28.22 89.1045 28.54C88.8245 28.86 88.6845 29.2 88.6845 29.56C88.6845 29.94 88.8045 30.26 89.0445 30.52C89.3045 30.76 89.6845 30.88 90.1845 30.88C90.7645 30.88 91.3245 30.75 91.8645 30.49C92.4245 30.23 92.8845 29.84 93.2445 29.32C93.6045 28.78 93.7845 28.13 93.7845 27.37H94.8045C94.8045 28.81 94.5445 30.06 94.0245 31.12C93.5245 32.18 92.8345 33 91.9545 33.58C91.0745 34.14 90.0745 34.42 88.9545 34.42ZM110.759 34V24.88C110.759 23.82 110.499 23.02 109.979 22.48C109.479 21.92 108.829 21.64 108.029 21.64C107.229 21.64 106.569 21.92 106.049 22.48C105.549 23.02 105.299 23.82 105.299 24.88H104.519C104.519 23.34 104.739 22.04 105.179 20.98C105.619 19.9 106.239 19.08 107.039 18.52C107.859 17.96 108.819 17.68 109.919 17.68C110.959 17.68 111.879 17.93 112.679 18.43C113.479 18.93 114.099 19.65 114.539 20.59C114.999 21.53 115.229 22.66 115.229 23.98V34H110.759ZM100.829 34V18.1H105.299V34H100.829ZM120.117 27.01V22.66H126.297C127.437 22.66 128.257 22.45 128.757 22.03C129.277 21.59 129.537 20.96 129.537 20.14C129.537 19.32 129.277 18.7 128.757 18.28C128.257 17.86 127.437 17.65 126.297 17.65H120.117V13.3H126.567C129.067 13.3 130.977 13.92 132.297 15.16C133.617 16.4 134.277 18.06 134.277 20.14C134.277 22.22 133.617 23.89 132.297 25.15C130.977 26.39 129.067 27.01 126.567 27.01H120.117ZM118.077 34V13.3H122.727V34H118.077ZM129.627 34L124.197 25.03H128.997L134.847 34H129.627ZM145.695 34C145.575 33.48 145.475 32.95 145.395 32.41C145.335 31.87 145.305 31.34 145.305 30.82V24.1C145.305 23.06 145.065 22.33 144.585 21.91C144.105 21.49 143.535 21.28 142.875 21.28C142.235 21.28 141.675 21.46 141.195 21.82C140.735 22.18 140.415 22.77 140.235 23.59L135.945 22.66C136.365 21 137.205 19.76 138.465 18.94C139.725 18.1 141.285 17.68 143.145 17.68C145.185 17.68 146.795 18.22 147.975 19.3C149.175 20.36 149.775 21.84 149.775 23.74V30.46C149.775 31.64 149.925 32.82 150.225 34H145.695ZM140.475 34.42C138.915 34.42 137.725 34.01 136.905 33.19C136.105 32.37 135.705 31.29 135.705 29.95C135.705 28.77 136.095 27.73 136.875 26.83C137.675 25.91 138.905 25.32 140.565 25.06L146.595 24.07V26.89L142.185 27.82C141.425 27.98 140.905 28.22 140.625 28.54C140.345 28.86 140.205 29.2 140.205 29.56C140.205 29.94 140.325 30.26 140.565 30.52C140.825 30.76 141.205 30.88 141.705 30.88C142.285 30.88 142.845 30.75 143.385 30.49C143.945 30.23 144.405 29.84 144.765 29.32C145.125 28.78 145.305 28.13 145.305 27.37H146.325C146.325 28.81 146.065 30.06 145.545 31.12C145.045 32.18 144.355 33 143.475 33.58C142.595 34.14 141.595 34.42 140.475 34.42ZM161.349 34.42C159.769 34.42 158.489 33.8 157.509 32.56C156.529 31.3 156.039 29.52 156.039 27.22V24.88C156.039 22.56 156.529 20.78 157.509 19.54C158.489 18.3 159.769 17.68 161.349 17.68C162.589 17.68 163.659 18.02 164.559 18.7C165.479 19.36 166.189 20.31 166.689 21.55C167.189 22.79 167.439 24.29 167.439 26.05C167.439 27.79 167.189 29.29 166.689 30.55C166.189 31.79 165.479 32.75 164.559 33.43C163.659 34.09 162.589 34.42 161.349 34.42ZM152.349 34V12.55H156.819V22.51L156.249 26.05L156.819 29.83V34H152.349ZM159.669 30.4C160.629 30.4 161.399 30.04 161.979 29.32C162.559 28.58 162.849 27.49 162.849 26.05C162.849 24.61 162.559 23.53 161.979 22.81C161.399 22.07 160.629 21.7 159.669 21.7C158.729 21.7 157.969 22.07 157.389 22.81C156.809 23.53 156.519 24.61 156.519 26.05C156.519 27.49 156.809 28.58 157.389 29.32C157.969 30.04 158.729 30.4 159.669 30.4ZM169.386 34V18.1H173.856V34H169.386ZM171.636 16.36C170.976 16.36 170.426 16.15 169.986 15.73C169.566 15.31 169.356 14.76 169.356 14.08C169.356 13.38 169.566 12.84 169.986 12.46C170.426 12.06 170.976 11.86 171.636 11.86C172.276 11.86 172.816 12.06 173.256 12.46C173.696 12.84 173.916 13.38 173.916 14.08C173.916 14.76 173.696 15.31 173.256 15.73C172.816 16.15 172.276 16.36 171.636 16.36ZM176.432 34V12.55H180.902V34H176.432Z" fill="#0A0D12"/>
</svg>
