<svg width="176" height="48" viewBox="0 0 176 48" fill="none" xmlns="http://www.w3.org/2000/svg">
<path d="M21.3314 18.6667V8H-0.00195312V18.6667L21.3314 18.6667Z" fill="white"/>
<path d="M21.3309 29.3332C15.4399 29.3332 10.6643 34.1089 10.6643 39.9999L-0.00064994 40.0003L-0.000649936 39.725C0.145943 28.1153 9.56641 18.7403 21.1937 18.667L31.998 18.6675V40.0008H21.3314L21.3309 29.3332Z" fill="white"/>
<path d="M45.612 34.42C44.996 34.42 44.3427 34.3547 43.652 34.224C42.98 34.112 42.476 33.9627 42.14 33.776V29.408C42.42 29.5387 42.7747 29.6413 43.204 29.716C43.652 29.7907 44.1 29.828 44.548 29.828C45.3693 29.828 45.948 29.66 46.284 29.324C46.62 28.9693 46.788 28.3907 46.788 27.588V14.428H51.744V28.148C51.744 30.0707 51.2213 31.6013 50.176 32.74C49.1307 33.86 47.6093 34.42 45.612 34.42ZM61.8435 34.42C60.1821 34.42 58.7261 34.1213 57.4755 33.524C56.2248 32.908 55.2541 32.068 54.5635 31.004C53.8915 29.9213 53.5555 28.68 53.5555 27.28C53.5555 25.88 53.8915 24.648 54.5635 23.584C55.2541 22.5013 56.2248 21.6613 57.4755 21.064C58.7261 20.448 60.1821 20.14 61.8435 20.14C63.5048 20.14 64.9608 20.448 66.2115 21.064C67.4621 21.6613 68.4235 22.5013 69.0955 23.584C69.7861 24.648 70.1315 25.88 70.1315 27.28C70.1315 28.68 69.7861 29.9213 69.0955 31.004C68.4235 32.068 67.4621 32.908 66.2115 33.524C64.9608 34.1213 63.5048 34.42 61.8435 34.42ZM61.8435 30.584C62.8328 30.584 63.6168 30.2947 64.1955 29.716C64.7928 29.1187 65.0915 28.3067 65.0915 27.28C65.0915 26.2533 64.7928 25.4507 64.1955 24.872C63.6168 24.2747 62.8328 23.976 61.8435 23.976C60.8541 23.976 60.0608 24.2747 59.4635 24.872C58.8848 25.4507 58.5955 26.2533 58.5955 27.28C58.5955 28.3067 58.8848 29.1187 59.4635 29.716C60.0608 30.2947 60.8541 30.584 61.8435 30.584ZM81.1902 34.42C79.2675 34.42 77.6808 33.832 76.4302 32.656V34H71.6702V13.308H76.5982V21.652C77.1395 21.1853 77.8115 20.8213 78.6142 20.56C79.4355 20.28 80.2942 20.14 81.1902 20.14C82.6088 20.14 83.8502 20.4387 84.9142 21.036C85.9968 21.6333 86.8368 22.4827 87.4342 23.584C88.0315 24.6667 88.3302 25.908 88.3302 27.308C88.3302 28.7267 88.0315 29.9773 87.4342 31.06C86.8368 32.124 85.9968 32.9547 84.9142 33.552C83.8315 34.1307 82.5902 34.42 81.1902 34.42ZM79.9022 30.612C80.9102 30.612 81.7222 30.3227 82.3382 29.744C82.9542 29.1467 83.2622 28.3347 83.2622 27.308C83.2622 26.2813 82.9542 25.4693 82.3382 24.872C81.7222 24.2747 80.9102 23.976 79.9022 23.976C79.1555 23.976 78.4835 24.172 77.8862 24.564C77.2888 24.9373 76.8595 25.4507 76.5982 26.104V28.484C76.8595 29.1373 77.2888 29.66 77.8862 30.052C78.4835 30.4253 79.1555 30.612 79.9022 30.612ZM90.2913 14.428H95.2473V21.988H102.919V14.428H107.875V34H102.919V26.104H95.2473V34H90.2913V14.428ZM118.117 34.42C116.456 34.42 115 34.1213 113.749 33.524C112.498 32.908 111.528 32.068 110.837 31.004C110.165 29.9213 109.829 28.68 109.829 27.28C109.829 25.88 110.165 24.648 110.837 23.584C111.528 22.5013 112.498 21.6613 113.749 21.064C115 20.448 116.456 20.14 118.117 20.14C119.778 20.14 121.234 20.448 122.485 21.064C123.736 21.6613 124.697 22.5013 125.369 23.584C126.06 24.648 126.405 25.88 126.405 27.28C126.405 28.68 126.06 29.9213 125.369 31.004C124.697 32.068 123.736 32.908 122.485 33.524C121.234 34.1213 119.778 34.42 118.117 34.42ZM118.117 30.584C119.106 30.584 119.89 30.2947 120.469 29.716C121.066 29.1187 121.365 28.3067 121.365 27.28C121.365 26.2533 121.066 25.4507 120.469 24.872C119.89 24.2747 119.106 23.976 118.117 23.976C117.128 23.976 116.334 24.2747 115.737 24.872C115.158 25.4507 114.869 26.2533 114.869 27.28C114.869 28.3067 115.158 29.1187 115.737 29.716C116.334 30.2947 117.128 30.584 118.117 30.584ZM128.354 20.56H133.114V21.904C134.364 20.728 135.951 20.14 137.874 20.14C139.274 20.14 140.515 20.4387 141.598 21.036C142.68 21.6147 143.52 22.4453 144.118 23.528C144.715 24.592 145.014 25.8333 145.014 27.252C145.014 28.652 144.715 29.9027 144.118 31.004C143.52 32.0867 142.68 32.9267 141.598 33.524C140.534 34.1213 139.292 34.42 137.874 34.42C136.978 34.42 136.119 34.28 135.298 34C134.495 33.7387 133.823 33.3747 133.282 32.908V40.132H128.354V20.56ZM136.586 30.584C137.594 30.584 138.406 30.2853 139.022 29.688C139.638 29.0907 139.946 28.2787 139.946 27.252C139.946 26.2253 139.638 25.4227 139.022 24.844C138.406 24.2467 137.594 23.948 136.586 23.948C135.839 23.948 135.167 24.144 134.57 24.536C133.972 24.9093 133.543 25.4227 133.282 26.076V28.456C133.543 29.1093 133.972 29.632 134.57 30.024C135.167 30.3973 135.839 30.584 136.586 30.584ZM148.179 34C147.694 34 147.274 33.832 146.919 33.496C146.583 33.16 146.415 32.7493 146.415 32.264C146.415 31.76 146.583 31.3307 146.919 30.976C147.274 30.6213 147.694 30.444 148.179 30.444C148.683 30.444 149.103 30.6213 149.439 30.976C149.794 31.3307 149.971 31.76 149.971 32.264C149.971 32.7493 149.794 33.16 149.439 33.496C149.103 33.832 148.683 34 148.179 34ZM156.992 34.42C155.312 34.42 153.949 34.0187 152.904 33.216C151.877 32.3947 151.364 31.256 151.364 29.8C151.364 28.288 151.859 27.1307 152.848 26.328C153.856 25.5067 155.293 25.096 157.16 25.096C157.888 25.096 158.616 25.18 159.344 25.348C160.072 25.4973 160.697 25.7027 161.22 25.964V25.684C161.22 24.2467 160.044 23.528 157.692 23.528C156.049 23.528 154.547 23.8453 153.184 24.48V21.092C153.781 20.812 154.565 20.588 155.536 20.42C156.507 20.2333 157.515 20.14 158.56 20.14C161.061 20.14 162.947 20.644 164.216 21.652C165.504 22.6413 166.148 24.032 166.148 25.824V34H161.528V32.852C161.024 33.3373 160.389 33.72 159.624 34C158.859 34.28 157.981 34.42 156.992 34.42ZM158.448 31.396C159.027 31.396 159.568 31.284 160.072 31.06C160.576 30.8173 160.959 30.5093 161.22 30.136V28.96C160.417 28.4187 159.503 28.148 158.476 28.148C157.823 28.148 157.319 28.288 156.964 28.568C156.609 28.848 156.432 29.2587 156.432 29.8C156.432 30.304 156.6 30.696 156.936 30.976C157.291 31.256 157.795 31.396 158.448 31.396ZM171.154 18.768C170.407 18.768 169.782 18.5253 169.278 18.04C168.774 17.5547 168.522 16.9387 168.522 16.192C168.522 15.464 168.774 14.8573 169.278 14.372C169.782 13.868 170.407 13.616 171.154 13.616C171.882 13.616 172.498 13.868 173.002 14.372C173.524 14.8573 173.786 15.464 173.786 16.192C173.786 16.92 173.524 17.536 173.002 18.04C172.498 18.5253 171.882 18.768 171.154 18.768ZM168.69 20.56H173.618V34H168.69V20.56Z" fill="white"/>
</svg>
