<svg width="134" height="44" viewBox="0 0 134 44" fill="none" xmlns="http://www.w3.org/2000/svg">
<g clip-path="url(#clip0_2203_677)">
<path d="M27.2694 2.12169L23.0486 0.990723L19.4917 14.2654L16.2804 2.28093L12.0595 3.4119L15.5291 16.3602L6.88724 7.71841L3.79738 10.8083L13.2764 20.2874L1.47179 17.1243L0.34082 21.3451L13.2388 24.8011C13.0912 24.1642 13.0131 23.5006 13.0131 22.8187C13.0131 17.992 16.9258 14.0792 21.7525 14.0792C26.5792 14.0792 30.492 17.992 30.492 22.8187C30.492 23.4962 30.4148 24.1557 30.269 24.7889L41.9909 27.9297L43.1218 23.709L30.1725 20.2392L41.9779 17.0759L40.8469 12.8551L27.8981 16.3247L36.54 7.68293L33.4501 4.59307L24.1026 13.9406L27.2694 2.12169Z" fill="#F97316"/>
<path d="M30.2567 24.838C29.8948 26.368 29.1308 27.7424 28.0825 28.8435L36.5745 37.3357L39.6644 34.2458L30.2567 24.838Z" fill="#F97316"/>
<path d="M27.9968 28.9323C26.9359 30.0159 25.5951 30.8245 24.0916 31.2413L27.1817 42.7735L31.4025 41.6425L27.9968 28.9323Z" fill="#F97316"/>
<path d="M23.934 31.2835C23.2364 31.4628 22.5053 31.5581 21.7518 31.5581C20.9446 31.5581 20.1629 31.4486 19.4208 31.2437L16.3279 42.7866L20.5487 43.9175L23.934 31.2835Z" fill="#F97316"/>
<path d="M19.2715 31.2012C17.791 30.7638 16.4741 29.9448 15.4348 28.8581L6.92192 37.3711L10.0118 40.4609L19.2715 31.2012Z" fill="#F97316"/>
<path d="M15.3647 28.7829C14.3432 27.6893 13.5992 26.3333 13.2451 24.827L1.48486 27.9781L2.61582 32.1989L15.3647 28.7829Z" fill="#F97316"/>
</g>
<path d="M61.32 10.28C66.024 10.28 69.512 12.712 69.512 17.096C69.512 19.976 67.88 21.864 65.48 22.568C67.848 22.888 68.936 24.072 69.16 26.504L69.704 33H64.776L64.36 27.272C64.2 25.352 63.144 24.712 60.488 24.712H56.264V33H51.368V10.28H61.32ZM56.264 20.584H60.648C63.112 20.584 64.488 19.496 64.488 17.512C64.488 15.496 63.112 14.408 60.648 14.408H56.264V20.584ZM76.4118 25.256C76.8598 27.72 78.5558 29.288 81.4038 29.288C83.5798 29.288 85.0518 28.424 85.0198 26.792C84.9878 25.128 83.5478 24.2 80.0278 23.304C75.0998 22.152 71.9638 20.168 71.9638 16.488C71.9638 12.36 75.3878 9.768 80.5398 9.768C85.6598 9.768 89.1158 12.872 89.6278 17.48L84.7638 17.672C84.4758 15.336 82.8438 13.832 80.4438 13.832C78.3318 13.832 76.8598 14.92 76.9238 16.552C77.0198 18.504 79.3238 19.112 81.6918 19.688C86.7478 20.808 89.9798 23.016 89.9798 26.632C89.9798 30.952 86.1718 33.384 81.2758 33.384C75.7078 33.384 71.8678 30.344 71.5158 25.544L76.4118 25.256ZM97.1705 25.256C97.6185 27.72 99.3145 29.288 102.163 29.288C104.339 29.288 105.811 28.424 105.779 26.792C105.747 25.128 104.307 24.2 100.787 23.304C95.8585 22.152 92.7225 20.168 92.7225 16.488C92.7225 12.36 96.1465 9.768 101.299 9.768C106.419 9.768 109.875 12.872 110.387 17.48L105.523 17.672C105.235 15.336 103.603 13.832 101.203 13.832C99.0905 13.832 97.6185 14.92 97.6825 16.552C97.7785 18.504 100.083 19.112 102.451 19.688C107.507 20.808 110.739 23.016 110.739 26.632C110.739 30.952 106.931 33.384 102.035 33.384C96.4665 33.384 92.6265 30.344 92.2745 25.544L97.1705 25.256ZM126.6 10.28H132.168L124.488 21.608L132.232 33H126.6L121.608 25.256L116.648 33H111.016L118.792 21.576L111.08 10.28H116.712L121.672 17.896L126.6 10.28Z" fill="#09090B"/>
<defs>
<clipPath id="clip0_2203_677">
<rect width="44" height="44" fill="white"/>
</clipPath>
</defs>
</svg>
